<?xml version="1.0" standalone="no"?>
<!DOCTYPE svg PUBLIC "-//W3C//DTD SVG 20010904//EN"
 "http://www.w3.org/TR/2001/REC-SVG-20010904/DTD/svg10.dtd">
<svg version="1.0" xmlns="http://www.w3.org/2000/svg"
 width="283.000000pt" height="283.000000pt" viewBox="0 0 283.000000 283.000000"
 preserveAspectRatio="xMidYMid meet">

<g transform="translate(0.000000,283.000000) scale(0.100000,-0.100000)"
fill="#000000" stroke="none">
<path d="M1889 2080 l-126 -119 -79 25 c-43 14 -116 28 -161 31 l-83 6 0 43 0
44 -52 0 c-72 0 -249 -42 -350 -82 l-83 -33 -3 -72 -3 -73 -32 0 c-18 0 -38 5
-44 11 -15 15 -43 4 -43 -16 0 -21 27 -30 45 -15 8 7 64 14 135 17 66 3 123
10 126 14 7 13 44 11 44 -1 0 -6 11 -15 25 -20 33 -13 106 -62 101 -68 -3 -2
-28 10 -56 28 -46 30 -53 32 -76 20 -19 -11 -27 -11 -36 -2 -7 7 -46 12 -100
12 -85 0 -88 -1 -84 -22 2 -20 10 -23 51 -26 26 -2 53 2 58 7 18 18 37 12 48
-15 9 -26 11 -27 79 -22 72 5 91 -1 66 -21 -10 -8 -16 -9 -21 -1 -3 5 -32 10
-64 10 -31 0 -62 5 -69 12 -9 9 -18 6 -40 -15 -22 -21 -37 -27 -68 -25 l-39 1
35 4 c34 4 70 27 70 45 0 4 -22 8 -50 8 -47 0 -50 -2 -50 -25 0 -27 -26 -35
-47 -14 -13 13 -33 4 -33 -16 0 -20 20 -29 33 -16 6 6 19 11 28 11 13 0 18
-14 23 -71 27 -273 163 -471 419 -613 26 -14 50 -26 52 -26 3 0 5 22 5 48 0
48 1 49 46 72 l46 23 -6 63 c-6 59 -4 68 29 133 32 64 35 78 35 156 0 47 -4
85 -9 85 -17 0 -29 -25 -36 -73 -6 -38 -13 -51 -37 -65 -16 -9 -41 -35 -54
-57 -26 -44 -32 -33 -10 19 8 19 28 42 45 52 23 14 31 26 31 47 0 26 -6 21
-77 -58 l-76 -85 -71 67 c-39 38 -100 97 -135 131 l-64 64 36 36 35 35 49 -41
c26 -22 68 -61 92 -86 l44 -45 36 31 c40 34 177 166 443 425 98 95 182 173
187 173 5 0 13 -6 19 -13 10 -12 -125 -174 -389 -466 -54 -60 -57 -66 -43 -85
9 -13 14 -46 14 -96 0 -67 -4 -85 -35 -147 -34 -69 -42 -117 -26 -156 6 -16
11 -15 52 16 93 72 177 212 204 343 7 38 17 119 21 179 6 106 8 111 38 145 18
19 68 78 111 130 43 52 84 102 92 111 11 13 7 21 -25 52 l-37 36 -126 -119z
m-319 -218 l0 -88 -45 -44 c-32 -32 -45 -39 -45 -27 0 23 -29 34 -41 16 -5 -8
-9 -34 -9 -59 -1 -37 -3 -41 -10 -22 -11 26 -35 29 -44 6 -3 -9 -7 -32 -7 -52
-1 -28 -3 -31 -6 -12 -7 35 -19 46 -38 30 -8 -7 -19 -10 -23 -6 -8 9 28 37 39
31 4 -3 11 0 15 6 4 6 -1 16 -10 21 -14 8 -16 30 -16 148 l0 140 120 0 120 0
0 -88z m-300 54 c0 -13 10 -35 21 -50 12 -15 19 -29 16 -32 -3 -3 -13 6 -22
20 -32 49 -117 69 -194 45 -8 -2 -16 4 -18 13 -4 15 4 16 70 11 50 -4 76 -2
81 6 4 6 16 11 27 11 13 0 19 -7 19 -24z m-360 -201 c0 -8 -4 -15 -10 -15 -5
0 -10 7 -10 15 0 8 5 15 10 15 6 0 10 -7 10 -15z m390 -354 c1 -43 25 -74 66
-87 l39 -12 -31 -1 c-35 -1 -44 -14 -44 -68 0 -23 -4 -33 -12 -30 -9 2 -12 20
-10 53 2 34 -3 61 -18 89 -11 21 -20 55 -20 73 0 30 2 33 15 22 8 -7 15 -24
15 -39z"/>
<path d="M1481 1845 c-53 -51 -58 -53 -74 -38 -9 9 -20 14 -23 10 -8 -8 36
-59 47 -55 10 5 121 138 114 138 -4 0 -32 -25 -64 -55z"/>
<path d="M1232 1919 c2 -6 8 -10 13 -10 5 0 11 4 13 10 2 6 -4 11 -13 11 -9 0
-15 -5 -13 -11z"/>
<path d="M1142 1844 c4 -21 22 -23 26 -1 2 10 -3 17 -13 17 -10 0 -15 -6 -13
-16z"/>
<path d="M885 1781 c-9 -16 18 -23 46 -12 16 6 18 10 7 10 -9 1 -23 4 -31 7
-8 3 -18 1 -22 -5z"/>
<path d="M1070 1780 c0 -5 5 -10 10 -10 6 0 10 5 10 10 0 6 -4 10 -10 10 -5 0
-10 -4 -10 -10z"/>
<path d="M690 736 l0 -116 25 0 26 0 -3 113 c-3 108 -4 112 -25 115 -23 3 -23
2 -23 -112z"/>
<path d="M489 826 c-2 -2 -3 -50 -1 -105 l3 -101 80 0 c62 0 79 3 79 15 0 10
-15 15 -57 17 -54 3 -58 5 -58 28 0 23 4 25 45 26 33 0 46 5 48 17 3 12 -7 17
-45 19 -41 3 -48 6 -51 26 -3 21 0 22 57 22 54 0 61 2 61 20 0 18 -7 20 -78
20 -43 0 -81 -2 -83 -4z"/>
<path d="M1501 746 c3 -63 8 -89 22 -104 38 -41 132 -35 156 11 13 26 15 42
13 120 -2 54 -4 58 -24 55 -21 -3 -23 -8 -23 -76 0 -61 -3 -76 -19 -88 -50
-36 -76 -5 -76 92 0 73 0 74 -26 74 l-26 0 3 -84z"/>
<path d="M1750 725 c0 -98 1 -105 20 -105 18 0 20 7 20 60 0 33 3 60 8 60 4 0
28 -27 52 -60 31 -42 52 -60 68 -60 21 0 22 3 22 105 0 105 0 105 -25 105 -23
0 -24 -4 -27 -62 l-3 -63 -49 63 c-29 36 -57 62 -67 62 -17 0 -19 -9 -19 -105z"/>
<path d="M2008 813 c-26 -30 -28 -41 -18 -67 7 -19 22 -29 65 -41 42 -13 55
-21 53 -33 -3 -13 -14 -17 -43 -16 -22 0 -47 4 -56 8 -12 5 -18 1 -22 -13 -4
-17 2 -23 34 -31 54 -15 106 -3 126 27 25 38 2 73 -62 94 -55 17 -66 32 -35
49 15 8 30 8 51 1 24 -8 31 -7 35 4 10 25 -6 35 -60 35 -38 0 -57 -5 -68 -17z"/>
<path d="M2251 808 c-5 -13 -25 -60 -45 -105 l-35 -83 25 0 c17 0 28 7 31 20
5 17 14 20 58 20 45 0 55 -3 60 -20 4 -13 15 -20 31 -20 13 0 24 3 23 8 0 4
-20 50 -43 102 -37 82 -47 95 -70 98 -20 3 -28 -2 -35 -20z m69 -100 c0 -5
-15 -8 -34 -8 l-34 0 16 41 16 41 17 -34 c10 -18 18 -36 19 -40z"/>
<path d="M1170 804 c0 -9 -8 -23 -17 -30 -17 -13 -17 -15 -1 -27 11 -9 18 -31
20 -63 3 -41 7 -51 28 -61 32 -15 71 -7 63 13 -3 8 -14 14 -24 14 -16 0 -19 8
-19 45 0 38 3 45 20 45 12 0 20 7 20 16 0 9 -9 18 -20 21 -11 3 -20 14 -20 24
0 14 -7 19 -25 19 -17 0 -25 -6 -25 -16z"/>
<path d="M812 773 c-16 -6 -42 -56 -42 -81 0 -51 66 -89 126 -73 45 12 38 37
-9 33 -37 -4 -67 10 -67 30 0 5 28 8 63 7 43 -2 62 1 61 9 -1 7 -2 19 -2 27
-3 27 -44 55 -81 54 -20 0 -42 -3 -49 -6z m76 -35 c21 -21 13 -28 -28 -28 -22
0 -40 4 -40 8 0 14 23 32 40 32 9 0 21 -5 28 -12z"/>
<path d="M995 755 c-27 -26 -33 -72 -15 -105 16 -30 81 -46 115 -29 16 8 30
19 32 25 6 18 -26 25 -47 11 -30 -18 -55 2 -55 44 0 30 3 34 29 37 16 2 32 -2
37 -9 6 -10 11 -10 23 1 15 12 15 14 0 31 -26 28 -89 25 -119 -6z"/>
<path d="M1311 754 c-73 -61 2 -169 94 -134 38 14 54 38 55 78 0 75 -88 108
-149 56z m99 -34 c14 -26 1 -59 -26 -66 -32 -8 -54 12 -54 48 0 46 58 59 80
18z"/>
</g>
</svg>
